<?xml version="1.0" encoding="UTF-8"?>
<svg xmlns="http://www.w3.org/2000/svg" xmlns:xlink="http://www.w3.org/1999/xlink" width="32pt" height="32pt" viewBox="0 0 32 32" version="1.1">
<g id="surface75213">
<path style=" stroke:none;fill-rule:nonzero;fill:rgb(0%,0%,0%);fill-opacity:1;" d="M 2.035156 7.035156 C 2.035156 4.273438 4.273438 2.035156 7.035156 2.035156 L 24.964844 2.035156 C 27.726562 2.035156 29.964844 4.273438 29.964844 7.035156 L 29.964844 24.964844 C 29.964844 27.726562 27.726562 29.964844 24.964844 29.964844 L 7.035156 29.964844 C 4.273438 29.964844 2.035156 27.726562 2.035156 24.964844 Z M 2.035156 7.035156 "/>
<path style="fill:none;stroke-width:16;stroke-linecap:butt;stroke-linejoin:miter;stroke:rgb(50%,0%,0%);stroke-opacity:1;stroke-miterlimit:10;" d="M 14.117188 2.542969 C 14.175781 4.820312 14.753906 7.054688 15.804688 9.074219 C 18.066406 13.414062 18.066406 18.585938 15.804688 22.925781 C 14.753906 24.945312 14.175781 27.179688 14.117188 29.457031 "/>
<path style="fill:none;stroke-width:3;stroke-linecap:butt;stroke-linejoin:miter;stroke:rgb(0%,50%,50%);stroke-opacity:1;stroke-miterlimit:10;" d="M 2.035156 7.035156 C 2.035156 4.273438 4.273438 2.035156 7.035156 2.035156 L 24.964844 2.035156 C 27.726562 2.035156 29.964844 4.273438 29.964844 7.035156 L 29.964844 24.964844 C 29.964844 27.726562 27.726562 29.964844 24.964844 29.964844 L 7.035156 29.964844 C 4.273438 29.964844 2.035156 27.726562 2.035156 24.964844 Z M 2.035156 7.035156 "/>
<path style="fill:none;stroke-width:3;stroke-linecap:butt;stroke-linejoin:miter;stroke:rgb(0%,50%,50%);stroke-opacity:1;stroke-miterlimit:10;" d="M 24.957031 8.484375 C 26.390625 10.191406 23.539062 14.941406 18.59375 19.089844 C 13.644531 23.242188 8.476562 25.222656 7.042969 23.515625 C 5.609375 21.808594 8.460938 17.058594 13.40625 12.910156 C 18.355469 8.757812 23.523438 6.777344 24.957031 8.484375 Z M 24.957031 8.484375 "/>
</g>
</svg>
